<svg xmlns="http://www.w3.org/2000/svg" xmlns:xlink="http://www.w3.org/1999/xlink" width="500" zoomAndPan="magnify" viewBox="0 0 375 374.999991" height="500" preserveAspectRatio="xMidYMid meet" version="1.0"><defs><clipPath id="9191496f64"><path d="M 10.652344 41.28125 L 364.652344 41.28125 L 364.652344 337.53125 L 10.652344 337.53125 Z M 10.652344 41.28125 " clip-rule="nonzero"/></clipPath></defs><g clip-path="url(#9191496f64)"><path fill="#ff6d4d" d="M 353.796875 106.488281 C 360.589844 106.488281 364.335938 102.667969 364.335938 95.945312 L 364.335938 51.949219 C 364.335938 45.15625 360.519531 41.339844 353.796875 41.339844 L 69.859375 41.339844 C 151.492188 41.339844 213.667969 105.636719 213.667969 189.390625 C 213.667969 273.140625 151.492188 337.441406 69.859375 337.441406 L 245.925781 337.441406 C 252.714844 337.441406 256.464844 333.621094 256.464844 326.902344 L 256.464844 232.964844 L 351.605469 232.964844 C 358.394531 232.964844 362.214844 229.144531 362.214844 222.425781 L 362.214844 178.425781 C 362.214844 171.636719 358.394531 167.886719 351.605469 167.886719 L 256.464844 167.886719 L 256.464844 106.488281 Z M 69.859375 106.488281 L 10.652344 106.488281 L 10.652344 272.292969 L 69.859375 272.292969 C 116.40625 272.292969 148.519531 240.179688 148.519531 189.390625 C 148.519531 138.601562 116.40625 106.488281 69.859375 106.488281 Z M 69.859375 106.488281 " fill-opacity="1" fill-rule="nonzero"/></g></svg>